<svg width="28" height="28" viewBox="0 0 28 28" fill="none" xmlns="http://www.w3.org/2000/svg">
<path d="M26.0688 13.9856L21.9727 18.0817L17.8766 13.9856" stroke="black" stroke-width="1.5" stroke-miterlimit="10" stroke-linecap="square"/>
<path d="M21.5633 17.2623C21.5633 17.2623 22.1777 18.5095 22.1777 13.9854C22.1777 12.3651 21.6973 10.7812 20.7971 9.43398C19.8969 8.08677 18.6175 7.03675 17.1205 6.41669C15.6236 5.79664 13.9764 5.63441 12.3872 5.95051C10.7981 6.26661 9.33837 7.04684 8.19266 8.19255C7.04695 9.33826 6.26671 10.798 5.95061 12.3871C5.63451 13.9763 5.79675 15.6235 6.4168 17.1204C7.03685 18.6173 8.08688 19.8968 9.43409 20.797C10.7813 21.6972 12.3652 22.1776 13.9855 22.1776" stroke="black" stroke-width="1.5" stroke-miterlimit="10" stroke-linecap="square"/>
</svg>
